# xmcd
#
# Track frame offsets:
# 150
# 25215
# 52044
# 75481
# 124126
# 145338
# 176020
# 196294
# 221579
# 253238
#
# Disc length: 3683 seconds
#
#
# Revision: 0
# Processed by: cddbd v1.5.1PL2 Copyright (c) Steve Scherf et al.
# Submitted via: FreeRIP 2.944 
#
DISCID=920e610a
DTITLE=Jimmy Thackery (& the Drivers) - Wild Night Out
DYEAR=1995
DGENRE=Blues
TTITLE0=Wild Night Out
TTITLE1=You Upset Me Baby
TTITLE2=The Stumble
TTITLE3=If You Go
TTITLE4=Empty Arms Motel
TTITLE5=Edward's Blues
TTITLE6=Flying Low
TTITLE7=Trouble Man
TTITLE8=Redhouse
TTITLE9=I Don't Live Today
EXTD=
EXTT0=
EXTT1=
EXTT2=
EXTT3=
EXTT4=
EXTT5=
EXTT6=
EXTT7=
EXTT8=
EXTT9=
PLAYORDER=
